PathFileType	4	(X/Y/Z)	C:/Users/beibeiliu/ov580/test_trc\sequence.36_training_dense_right.trc
DataRate	CameraRate	NumFrames	NumMarkers	Units	OrigDataRate	OrigDataStartFrame	OrigNumFrames
120	120	16	19	mm	120	138	165
Frame#	Time	ThumbCMC			ThumbMCP			ThumbIP			ThumbTip			IndexMCP			IndexPIP			IndexTip			MiddleMCP			MiddlePIP			MiddleTip			RingMCP			RingPIP			RingTip			PinkyMCP			PinkyPIP			PinkyTip			BackHand1			BackHand2			BackHand3	
		X0	Y0	Z0	X1	Y1	Z1	X2	Y2	Z2	X3	Y3	Z3	X4	Y4	Z4	X5	Y5	Z5	X6	Y6	Z6	X7	Y7	Z7	X8	Y8	Z8	X9	Y9	Z9	X10	Y10	Z10	X11	Y11	Z11	X12	Y12	Z12	X13	Y13	Z13	X14	Y14	Z14	X15	Y15	Z15	X16	Y16	Z16	X17	Y17	Z17	X18	Y18	Z18	
137	1.14167	141.871	49.9385	37.3723	125.829	71.2429	13.6081	105.603	77.9696	-2.30404	83.231	75.8033	0.345442	119.318	30.7503	-23.5121	118.302	38.043	-44.0394	113.94	46.0814	-65.4291	93.9946	20.4264	-16.84	85.9505	16.6948	-41.867	74.6327	15.4313	-60.4854	75.7936	23.6402	-5.50584	66.0774	26.7513	-27.432	57.1945	32.8451	-46.2897	63.9671	37.4711	8.90471	54.2456	49.1953	-2.92938	47.0546	67.5152	-13.9177	94.0317	16.3135	35.7761	108.903	13.1106	56.9165	126.625	17.5094	33.259	
138	1.15	133.416	55.6394	38.8661	114.94	74.3785	15.2509	92.8987	75.0622	-0.981668	67.2945	67.3585	-2.74741	117.576	33.218	-22.0026	116.197	41.081	-45.1215	108.825	48.087	-63.5441	96.2656	16.519	-17.9113	88.3828	13.125	-41.5345	77.211	7.20328	-56.5783	78.6698	19.5497	-3.89193	64.9971	18.9947	-26.7104	59.3814	24.2816	-46.9976	62.6784	28.6092	7.53671	53.1089	41.1345	-5.76282	45.7479	59.9005	-16.3448	97.7602	13.1293	32.4734	104.857	11.8689	58.1253	124.945	21.1837	38.7466	
139	1.15833	115.211	65.6188	45.6859	94.2662	74.4727	19.0795	76.1564	70.1793	0.620965	60.8696	53.2764	-2.46488	119.273	49.4328	-18.7577	111.415	56.1171	-41.9289	102.951	61.7325	-58.5478	106.051	23.5609	-17.3114	100.592	18.2837	-42.0226	93.9679	10.3386	-60.686	88.5297	18.8516	-7.1115	78.4232	14.7452	-27.6674	68.7021	16.8222	-51.1503	66.5798	17.3226	4.5063	57.9246	26.1227	-9.10693	44.5548	43.5782	-20.2466	103.607	17.1542	32.7137	109.664	15.9557	59.6351	124.075	32.5147	41.453	
140	1.16667	92.3163	76.0186	48.9029	68.9845	80.3009	21.9643	60.7306	67.2052	3.9658	57.5075	45.2089	-9.07404	107.407	71.0391	-10.5993	95.1532	71.7618	-36.9617	82.391	78.5907	-54.5445	112.188	45.4984	-12.2091	114.114	42.7839	-39.9786	113.711	33.5226	-61.6452	100.249	25.7849	-9.35203	97.1508	27.377	-31.8242	89.5739	23.9823	-54.6381	85.7441	17.5098	3.40058	75.0882	21.8418	-14.6308	54.573	33.2202	-28.9389	106.835	26.8849	37.1885	110.66	30.0424	59.4339	117.778	57.075	46.1272	
141	1.175	66.7149	80.139	55.5835	52.2641	72.7563	22.9081	49.3585	64.8114	-0.74934	56.0861	47.6643	-13.4395	87.0355	91.4574	-9.15105	77.4225	84.8059	-30.4042	59.1036	78.7756	-46.0176	109.086	70.4883	-8.54801	112.388	77.5353	-33.9784	117.598	74.5782	-57.0727	108.892	55.7529	-9.06107	110.523	52.9379	-32.1002	108.64	55.6459	-49.7698	104.482	32.654	1.22468	93.9284	35.5833	-21.3491	80.5194	34.2489	-35.2935	110.72	53.0078	36.7172	112.18	46.5854	64.0183	103.765	72.4253	50.7558	
142	1.18333	53.7261	74.1842	50.3825	38.9193	64.903	23.8157	39.8452	60.8206	-1.55376	46.7769	52.0163	-18.1876	68.9809	97.0421	-6.53092	57.4167	88.5506	-27.9757	44.2015	69.8031	-40.601	96.9593	95.2002	-8.35574	99.7247	100.167	-29.6874	102.949	106.286	-58.3397	109.985	81.1172	-6.81865	111.048	85.9841	-23.8131	114.267	89.6814	-49.9163	115.742	60.567	1.3504	113.658	64.1101	-18.106	111.574	60.243	-41.2641	105.324	70.5628	41.2047	110.334	66.2024	60.9511	86.7962	87.9986	53.1581	
143	1.19167	53.0672	65.1608	47.3176	39.6095	53.3217	24.4089	33.7018	51.4687	-1.67576	36.4	49.3743	-23.7703	56.0317	92.5406	-6.56231	49.9743	74.171	-31.3706	52.7265	47.9687	-33.8462	82.7398	102.09	-8.22068	82.9588	109.299	-31.6611	81.9484	117.072	-58.4322	101.688	94.5876	-0.723159	108.479	106.68	-25.5381	108.265	114.387	-41.9483	118.075	79.2629	6.71884	123.212	86.3419	-12.0881	124.366	95.6284	-32.9012	99.0973	86.29	36.4926	101.522	74.9414	64.4979	76.2803	86.3768	49.9555	
144	1.2	53.8327	56.6629	49.5313	40.3838	45.1685	22.8017	34.3702	44.11	0.799351	28.4893	39.8875	-18.8889	50.7163	83.8397	-14.2566	55.7537	62.5729	-33.6496	58.9272	37.0977	-27.7303	70.3997	100.058	-11.2559	69.7733	106.865	-37.8833	68.1765	112.851	-60.3482	95.1204	102.735	-5.60951	98.6455	111.813	-21.789	100.194	126.184	-41.4834	116.943	91.2753	6.12377	121.326	104.296	-10.8335	124.662	113.746	-19.8416	94.2703	88.4055	32.2297	97.3654	80.6243	62.3037	70.4924	87.6783	47.0654	
145	1.20833	54.6253	52.9632	45.9219	42.631	42.3111	19.9153	32.3699	36.6893	1.42318	25.3198	33.8383	-17.5219	51.763	77.4125	-17.5232	55.2081	58.1855	-35.1603	65.9364	31.0984	-28.5397	67.2305	97.4882	-14.912	63.8235	100.996	-40.5698	64.4298	102.713	-66.1764	89.1255	102.825	-7.6944	90.6814	114.94	-26.3572	93.144	126.315	-43.2521	110.719	94.756	5.23097	116.299	106.939	-6.20869	125.132	122.08	-11.0537	94.5317	89.0549	33.0411	95.3638	82.6469	57.674	69.8817	84.6395	45.2509	
146	1.21667	52.3928	53.9043	41.5281	44.0714	41.3242	21.5291	31.705	37.2178	-0.554729	25.6173	31.3074	-15.9151	45.6807	73.8742	-20.6218	50.3481	57.3166	-36.7846	69.1188	31.221	-36.4918	64.8652	93.0254	-19.7151	63.0404	92.673	-47.5085	64.9341	85.181	-75.6792	88.3889	99.8474	-10.6176	88.8314	111.744	-31.6171	89.2826	122.17	-46.9895	110.567	98.9952	2.66325	114.477	111.127	-7.27695	117.747	127.264	-12.0366	86.4217	92.0653	28.7652	93.4269	84.1305	53.2904	66.666	81.8845	43.9557	
147	1.225	48.8038	54.214	42.2862	40.8968	42.0276	21.2438	30.3596	38.6035	0.98767	22.9138	34.557	-16.9466	45.3756	76.1663	-18.8459	46.9031	60.116	-40.584	58.6171	35.3455	-49.4975	65.0126	91.5062	-25.3694	61.1489	82.9013	-53.0325	63.4377	65.1368	-74.5001	84.5376	98.8221	-14.6486	86.9435	107.711	-33.7514	87.0172	117.33	-52.3587	104.167	95.6594	1.50409	112.432	107.91	-7.55585	116.403	124.022	-8.30348	85.2507	91.4527	29.2355	88.5423	85.9399	50.7422	65.4761	83.4712	42.7894	
148	1.23333	47.3179	59.542	43.0848	34.4979	47.0125	19.8167	22.9561	44.4494	-0.998088	16.1339	39.2049	-16.3514	38.5564	80.6076	-20.0734	40.4252	66.9103	-42.8275	42.112	47.4503	-58.4816	60.4701	91.8054	-25.8954	61.549	82.827	-50.0006	66.967	56.2728	-68.151	80.8332	101.896	-17.871	84.9963	108.352	-36.1313	82.5469	113.406	-57.2069	104.51	101.275	-0.759726	112.893	111.703	-9.0524	115.506	128.398	-13.8102	84.5121	94.5679	26.0557	86.6492	89.5107	52.6274	62.8219	89.7799	42.8403	
149	1.24167	40.9002	65.9389	44.7446	32.3988	56.0197	23.6155	17.5443	53.2297	0.130308	14.093	50.9989	-18.352	41.0544	91.5148	-18.3819	38.4305	81.8955	-39.1044	37.1518	69.7115	-59.2754	60.7738	94.8233	-23.4477	60.1093	80.2229	-48.662	64.89	51.1104	-61.0166	80.905	102.173	-17.8455	84.2108	105.246	-37.8963	85.5455	109.288	-63.6795	104.587	100.678	-2.77369	112.079	110.017	-11.0959	117.93	125.529	-15.7779	83.0043	98.2339	28.457	87.9183	93.778	52.7537	57.8128	94.7959	41.4002	
150	1.25	38.6425	78.5872	46.4449	26.5959	70.5657	20.7608	16.6149	68.6633	2.03367	6.35816	67.3068	-17.1915	42.6102	100.468	-17.2158	37.7047	93.0725	-39.2017	34.3903	75.7671	-62.8138	66.0299	93.848	-25.5182	62.5892	74.2046	-47.221	59.3306	44.6251	-52.3297	87.2874	97.5262	-16.7264	89.8079	98.0235	-42.8156	88.8066	96.162	-60.6061	105.029	93.4368	-0.146926	114.212	98.7543	-8.88762	125.945	113.034	-14.27	85.198	100.539	27.519	86.6254	96.1442	52.5379	61.8355	102.333	40.6276	
151	1.25833	36.3957	93.1894	45.6405	22.1353	84.9657	24.545	16.5894	86.786	1.18025	6.8123	84.8757	-15.8154	45.5482	104.973	-16.5162	43.3727	92.4192	-38.1939	35.3335	69.0775	-55.31	69.6639	93.6575	-21.2813	61.3733	75.9255	-43.1818	49.6255	50.6259	-50.0755	93.5091	91.2675	-19.1147	94.6147	88.1929	-40.2722	94.0322	83.3235	-57.0007	109.607	84.3788	5.27181	118.67	89.382	-7.86924	132.683	97.9044	-14.9213	87.1449	99.4935	29.918	91.2415	95.4193	58.149	64.8114	108.18	41.8307	
152	1.26667	38.8121	97.924	48.5862	21.8854	93.1752	27.8878	10.1855	96.3564	2.45953	3.05438	96.3161	-12.4272	48.822	100.844	-15.8692	38.7439	82.8547	-33.9225	29.5916	57.3089	-36.4323	69.7466	90.803	-24.4339	59.4514	76.709	-42.8403	52.0182	51.9418	-54.3572	91.5456	86.8894	-11.9379	92.1714	84.1457	-32.6152	93.7795	78.5512	-53.6633	104.447	78.6346	6.52003	120.632	78.0032	-5.64851	130.384	83.6735	-13.0313	91.5299	96.5803	32.6974	84.8644	96.4276	60.13	64.2997	110.28	44.6885	
